<?xml version="1.0" standalone="no"?><!DOCTYPE svg PUBLIC "-//W3C//DTD SVG 1.1//EN" "http://www.w3.org/Graphics/SVG/1.1/DTD/svg11.dtd"><svg t="1651473946751" class="icon" viewBox="0 0 1024 1024" version="1.1" xmlns="http://www.w3.org/2000/svg" p-id="2105" xmlns:xlink="http://www.w3.org/1999/xlink" width="200" height="200"><defs><style type="text/css">@font-face { font-family: feedback-iconfont; src: url("//at.alicdn.com/t/font_1031158_u69w8yhxdu.woff2?t=1630033759944") format("woff2"), url("//at.alicdn.com/t/font_1031158_u69w8yhxdu.woff?t=1630033759944") format("woff"), url("//at.alicdn.com/t/font_1031158_u69w8yhxdu.ttf?t=1630033759944") format("truetype"); }
</style></defs><path d="M512 64a448 448 0 1 1 0 896A448 448 0 0 1 512 64z m0 64a384 384 0 1 0 0 768A384 384 0 0 0 512 128z m0 483.2A246.208 246.208 0 0 1 741.376 768h-67.52C635.328 702.4 590.528 671.872 512 671.872c-78.528 0-125.12 35.712-160.64 96.128H282.624A246.208 246.208 0 0 1 512 611.2z m157.888-251.264a48 48 0 1 1 0 96 48 48 0 0 1 0-96z m-315.264 0a48 48 0 1 1 0 96 48 48 0 0 1 0-96z" p-id="2106" fill="#ff0000"></path></svg>